<svg width="164" height="29" viewBox="0 0 164 29" fill="none" xmlns="http://www.w3.org/2000/svg">
<path d="M157.557 22.3359C156.709 22.3359 155.917 22.2479 155.181 22.0719C154.461 21.9119 153.829 21.6479 153.285 21.2799C152.757 20.9119 152.349 20.4239 152.061 19.8159C151.789 19.1919 151.677 18.4399 151.725 17.5599L155.109 17.2719C155.141 17.7999 155.261 18.2399 155.469 18.5919C155.677 18.9279 155.965 19.1759 156.333 19.3359C156.701 19.4959 157.149 19.5759 157.677 19.5759C158.173 19.5759 158.597 19.4959 158.949 19.3359C159.317 19.1599 159.501 18.8719 159.501 18.4719C159.501 18.2639 159.437 18.0959 159.309 17.9679C159.181 17.8239 158.941 17.6959 158.589 17.5839C158.253 17.4559 157.757 17.3119 157.101 17.1519C156.285 16.9439 155.549 16.7359 154.893 16.5279C154.237 16.3199 153.677 16.0719 153.213 15.7839C152.749 15.4959 152.397 15.1439 152.157 14.7279C151.917 14.2959 151.797 13.7679 151.797 13.1439C151.797 12.2639 152.029 11.5199 152.493 10.9119C152.973 10.2879 153.629 9.81594 154.461 9.49594C155.293 9.15994 156.253 8.99194 157.341 8.99194C158.317 8.99194 159.229 9.14394 160.077 9.44794C160.925 9.75194 161.589 10.2479 162.069 10.9359C162.565 11.6239 162.749 12.5359 162.621 13.6719L159.309 13.9839C159.357 13.5199 159.293 13.1279 159.117 12.8079C158.941 12.4719 158.685 12.2239 158.349 12.0639C158.013 11.8879 157.605 11.7999 157.125 11.7999C156.581 11.7999 156.157 11.9039 155.853 12.1119C155.565 12.3039 155.421 12.5519 155.421 12.8559C155.421 13.0959 155.509 13.3039 155.685 13.4799C155.877 13.6399 156.165 13.7839 156.549 13.9119C156.949 14.0239 157.461 14.1519 158.085 14.2959C158.629 14.4079 159.197 14.5519 159.789 14.7279C160.381 14.9039 160.933 15.1439 161.445 15.4479C161.957 15.7359 162.373 16.1199 162.693 16.5999C163.013 17.0799 163.173 17.6879 163.173 18.4239C163.173 19.2079 162.957 19.8959 162.525 20.4879C162.093 21.0799 161.461 21.5359 160.629 21.8559C159.797 22.1759 158.773 22.3359 157.557 22.3359Z" fill="white"/>
<path d="M142.317 22.3359C141.677 22.3359 141.069 22.2239 140.493 21.9999C139.917 21.7759 139.445 21.4159 139.077 20.9199C138.709 20.4079 138.525 19.7279 138.525 18.8799C138.525 18.0959 138.677 17.4639 138.981 16.9839C139.285 16.4879 139.693 16.0959 140.205 15.8079C140.717 15.5039 141.277 15.2799 141.885 15.1359C142.493 14.9759 143.093 14.8399 143.685 14.7279C144.517 14.5679 145.141 14.4399 145.557 14.3439C145.973 14.2479 146.253 14.1359 146.397 14.0079C146.557 13.8799 146.637 13.7039 146.637 13.4799C146.637 13.0159 146.461 12.6639 146.109 12.4239C145.773 12.1839 145.325 12.0639 144.765 12.0639C144.413 12.0639 144.061 12.1279 143.709 12.2559C143.357 12.3839 143.069 12.6159 142.845 12.9519C142.621 13.2719 142.517 13.7359 142.533 14.3439L139.077 14.1039C139.045 13.0959 139.197 12.2639 139.533 11.6079C139.869 10.9359 140.325 10.4159 140.901 10.0479C141.493 9.66394 142.133 9.39194 142.821 9.23195C143.525 9.07194 144.221 8.99194 144.909 8.99194C146.173 8.99194 147.213 9.23194 148.029 9.71194C148.845 10.1759 149.445 10.8559 149.829 11.7519C150.229 12.6319 150.429 13.7039 150.429 14.9679V17.2239C150.429 17.7519 150.429 18.2879 150.429 18.8319C150.429 19.3599 150.429 19.8879 150.429 20.4159C150.429 20.9439 150.429 21.4719 150.429 21.9999H147.069C147.069 21.4239 147.069 20.8399 147.069 20.2479C147.069 19.6559 147.069 19.0319 147.069 18.3759H146.925C146.861 19.0959 146.621 19.7599 146.205 20.3679C145.805 20.9599 145.269 21.4399 144.597 21.8079C143.941 22.1599 143.181 22.3359 142.317 22.3359ZM143.925 19.5039C144.197 19.5039 144.485 19.4559 144.789 19.3599C145.109 19.2479 145.405 19.0719 145.677 18.8319C145.965 18.5919 146.197 18.2639 146.373 17.8479C146.549 17.4159 146.637 16.8879 146.637 16.2639V15.6879L147.285 15.6159C147.157 15.8239 146.941 15.9919 146.637 16.1199C146.349 16.2479 146.021 16.3519 145.653 16.4319C145.285 16.4959 144.909 16.5679 144.525 16.6479C144.157 16.7119 143.813 16.8079 143.493 16.9359C143.173 17.0479 142.909 17.2079 142.701 17.4159C142.509 17.6079 142.413 17.8799 142.413 18.2319C142.413 18.6479 142.557 18.9679 142.845 19.1919C143.149 19.3999 143.509 19.5039 143.925 19.5039Z" fill="white"/>
<path d="M130.052 22L126.236 9.328H130.364L132.548 18.784H132.644L134.924 9.328H138.812L134.996 22H130.052Z" fill="white"/>
<path d="M114.021 21.9999V14.8239V9.32794H117.309V14.4879H117.501C117.597 13.2399 117.805 12.2159 118.125 11.4159C118.445 10.5999 118.901 9.99194 119.493 9.59194C120.085 9.19194 120.837 8.99194 121.749 8.99194C123.125 8.99194 124.157 9.44794 124.845 10.3599C125.549 11.2719 125.901 12.6319 125.901 14.4399V21.9999H122.013V14.9439C122.013 14.0799 121.877 13.4319 121.605 12.9999C121.349 12.5679 120.933 12.3519 120.357 12.3519C119.877 12.3519 119.453 12.5199 119.085 12.8559C118.717 13.1919 118.429 13.7359 118.221 14.4879C118.013 15.2399 117.909 16.2479 117.909 17.5119V21.9999H114.021Z" fill="white"/>
<path d="M104.325 22.3359C103.685 22.3359 103.077 22.2239 102.501 21.9999C101.925 21.7759 101.453 21.4159 101.085 20.9199C100.717 20.4079 100.533 19.7279 100.533 18.8799C100.533 18.0959 100.685 17.4639 100.989 16.9839C101.293 16.4879 101.701 16.0959 102.213 15.8079C102.725 15.5039 103.285 15.2799 103.893 15.1359C104.501 14.9759 105.101 14.8399 105.693 14.7279C106.525 14.5679 107.149 14.4399 107.565 14.3439C107.981 14.2479 108.261 14.1359 108.405 14.0079C108.565 13.8799 108.645 13.7039 108.645 13.4799C108.645 13.0159 108.469 12.6639 108.117 12.4239C107.781 12.1839 107.333 12.0639 106.773 12.0639C106.421 12.0639 106.069 12.1279 105.717 12.2559C105.365 12.3839 105.077 12.6159 104.853 12.9519C104.629 13.2719 104.525 13.7359 104.541 14.3439L101.085 14.1039C101.053 13.0959 101.205 12.2639 101.541 11.6079C101.877 10.9359 102.333 10.4159 102.909 10.0479C103.501 9.66394 104.141 9.39194 104.829 9.23195C105.533 9.07194 106.229 8.99194 106.917 8.99194C108.181 8.99194 109.221 9.23194 110.037 9.71194C110.853 10.1759 111.453 10.8559 111.837 11.7519C112.237 12.6319 112.437 13.7039 112.437 14.9679V17.2239C112.437 17.7519 112.437 18.2879 112.437 18.8319C112.437 19.3599 112.437 19.8879 112.437 20.4159C112.437 20.9439 112.437 21.4719 112.437 21.9999H109.077C109.077 21.4239 109.077 20.8399 109.077 20.2479C109.077 19.6559 109.077 19.0319 109.077 18.3759H108.933C108.869 19.0959 108.629 19.7599 108.213 20.3679C107.813 20.9599 107.277 21.4399 106.605 21.8079C105.949 22.1599 105.189 22.3359 104.325 22.3359ZM105.933 19.5039C106.205 19.5039 106.493 19.4559 106.797 19.3599C107.117 19.2479 107.413 19.0719 107.685 18.8319C107.973 18.5919 108.205 18.2639 108.381 17.8479C108.557 17.4159 108.645 16.8879 108.645 16.2639V15.6879L109.293 15.6159C109.165 15.8239 108.949 15.9919 108.645 16.1199C108.357 16.2479 108.029 16.3519 107.661 16.4319C107.293 16.4959 106.917 16.5679 106.533 16.6479C106.165 16.7119 105.821 16.8079 105.501 16.9359C105.181 17.0479 104.917 17.2079 104.709 17.4159C104.517 17.6079 104.421 17.8799 104.421 18.2319C104.421 18.6479 104.565 18.9679 104.853 19.1919C105.157 19.3999 105.517 19.5039 105.933 19.5039Z" fill="white"/>
<path d="M93.1684 22.336C91.8244 22.336 90.6724 22.12 89.7124 21.688C88.7524 21.256 87.9684 20.656 87.3604 19.888C86.7524 19.12 86.3044 18.248 86.0164 17.272C85.7444 16.28 85.6084 15.232 85.6084 14.128C85.6084 12.992 85.7524 11.92 86.0404 10.912C86.3284 9.90397 86.7684 9.02397 87.3604 8.27197C87.9684 7.50397 88.7444 6.90398 89.6884 6.47197C90.6324 6.03997 91.7684 5.82397 93.0964 5.82397C94.2484 5.82397 95.2404 5.99197 96.0724 6.32797C96.9044 6.64797 97.5684 7.09597 98.0644 7.67198C98.5764 8.23197 98.9284 8.87997 99.1204 9.61597C99.3124 10.352 99.3604 11.12 99.2644 11.92L95.6884 12.352C95.7204 11.664 95.6324 11.072 95.4244 10.576C95.2324 10.08 94.9284 9.69597 94.5124 9.42397C94.1124 9.15197 93.6004 9.01597 92.9764 9.01597C92.4484 9.01597 91.9764 9.11998 91.5604 9.32798C91.1604 9.53597 90.8164 9.84797 90.5284 10.264C90.2564 10.68 90.0484 11.2 89.9044 11.824C89.7604 12.432 89.6884 13.144 89.6884 13.96C89.6884 15.016 89.8164 15.936 90.0724 16.72C90.3284 17.488 90.7204 18.088 91.2484 18.52C91.7764 18.936 92.4404 19.144 93.2404 19.144C93.9764 19.144 94.5524 18.976 94.9684 18.64C95.4004 18.304 95.7044 17.84 95.8804 17.248C96.0564 16.656 96.1124 15.992 96.0484 15.256L99.7204 15.568C99.8004 16.448 99.7364 17.296 99.5284 18.112C99.3364 18.912 98.9764 19.632 98.4484 20.272C97.9364 20.912 97.2404 21.416 96.3604 21.784C95.4964 22.152 94.4324 22.336 93.1684 22.336Z" fill="white"/>
<path d="M60.3252 21.9999V14.9679V9.32794H63.6132V14.4879H63.8052C63.9172 13.1439 64.1332 12.0719 64.4532 11.2719C64.7892 10.4719 65.2292 9.89594 65.7732 9.54394C66.3332 9.17594 66.9972 8.99194 67.7652 8.99194C68.5652 8.99194 69.2132 9.19194 69.7092 9.59194C70.2052 9.97594 70.5732 10.5759 70.8132 11.3919C71.0532 12.1919 71.1652 13.2239 71.1492 14.4879H71.3412C71.4532 13.1599 71.6852 12.0959 72.0372 11.2959C72.3892 10.4959 72.8532 9.91194 73.4292 9.54394C74.0052 9.17594 74.6852 8.99194 75.4692 8.99194C76.1252 8.99194 76.6932 9.11194 77.1732 9.35194C77.6532 9.59194 78.0532 9.95194 78.3732 10.4319C78.7092 10.9119 78.9572 11.5199 79.1172 12.2559C79.2772 12.9759 79.3572 13.8239 79.3572 14.7999V21.9999H75.4692V15.1359C75.4692 14.5279 75.4132 14.0239 75.3012 13.6239C75.2052 13.2079 75.0532 12.9039 74.8452 12.7119C74.6372 12.5039 74.3732 12.3999 74.0532 12.3999C73.6372 12.3999 73.2532 12.5919 72.9012 12.9759C72.5492 13.3439 72.2612 13.9039 72.0372 14.6559C71.8292 15.4079 71.7252 16.3599 71.7252 17.5119V21.9999H67.9332V15.0399C67.9332 14.4319 67.8772 13.9359 67.7652 13.5519C67.6692 13.1679 67.5092 12.8799 67.2852 12.6879C67.0772 12.4959 66.8132 12.3999 66.4932 12.3999C66.0932 12.3999 65.7172 12.5679 65.3652 12.9039C65.0292 13.2239 64.7492 13.7599 64.5252 14.5119C64.3172 15.2639 64.2132 16.2639 64.2132 17.5119V21.9999H60.3252Z" fill="#34C286"/>
<path d="M50.9017 22.336C49.5257 22.336 48.5017 21.856 47.8297 20.896C47.1737 19.936 46.8457 18.464 46.8457 16.48V9.328H50.7337V16.432C50.7337 17.36 50.8617 18.008 51.1177 18.376C51.3897 18.744 51.7737 18.928 52.2697 18.928C52.6217 18.928 52.9417 18.84 53.2297 18.664C53.5337 18.472 53.7977 18.192 54.0217 17.824C54.2457 17.44 54.4137 16.952 54.5257 16.36C54.6537 15.768 54.7177 15.056 54.7177 14.224V9.328H58.6057V16.288V22H55.2937V17.056H55.1257C55.0297 18.288 54.8137 19.296 54.4777 20.08C54.1417 20.848 53.6777 21.416 53.0857 21.784C52.4937 22.152 51.7657 22.336 50.9017 22.336Z" fill="#34C286"/>
<path d="M41.3405 22V9.32802H45.2285V22H41.3405ZM43.2605 8.41602C42.5245 8.41602 41.9565 8.26402 41.5565 7.96002C41.1725 7.64002 40.9805 7.18402 40.9805 6.59202C40.9805 5.98402 41.1725 5.52802 41.5565 5.22402C41.9565 4.90402 42.5245 4.74402 43.2605 4.74402C44.0125 4.74402 44.5805 4.90402 44.9645 5.22402C45.3645 5.54402 45.5645 6.00002 45.5645 6.59202C45.5645 7.16802 45.3645 7.61602 44.9645 7.93602C44.5805 8.25602 44.0125 8.41602 43.2605 8.41602Z" fill="#34C286"/>
<path d="M27.541 22L31.525 15.64L27.589 9.328H32.101L33.949 13.432H34.069L35.869 9.328H40.333L36.517 15.64L40.381 22H35.797L34.045 17.968H33.949L32.005 22H27.541Z" fill="#34C286"/>
<path d="M22.1696 22.3359C20.9696 22.3359 19.9616 22.1679 19.1456 21.8319C18.3456 21.4799 17.6976 21.0079 17.2016 20.4159C16.7056 19.8079 16.3456 19.1199 16.1216 18.3519C15.9136 17.5839 15.8096 16.7759 15.8096 15.9279C15.8096 15.0159 15.9216 14.1439 16.1456 13.3119C16.3856 12.4799 16.7456 11.7439 17.2256 11.1039C17.7216 10.4479 18.3536 9.93594 19.1216 9.56794C19.9056 9.18394 20.8416 8.99194 21.9296 8.99194C23.0176 8.99194 23.9456 9.18394 24.7136 9.56794C25.4976 9.93594 26.1216 10.4559 26.5856 11.1279C27.0496 11.7999 27.3456 12.5759 27.4736 13.4559C27.6176 14.3359 27.6016 15.2879 27.4256 16.3119L18.2336 16.4559V14.3439L24.4496 14.2239L23.9456 15.4479C24.0416 14.7119 24.0256 14.0959 23.8976 13.5999C23.7856 13.0879 23.5696 12.7039 23.2496 12.4479C22.9296 12.1759 22.4896 12.0399 21.9296 12.0399C21.3376 12.0399 20.8656 12.1919 20.5136 12.4959C20.1616 12.7999 19.9136 13.2319 19.7696 13.7919C19.6256 14.3359 19.5536 14.9839 19.5536 15.7359C19.5536 17.0319 19.7696 17.9759 20.2016 18.5679C20.6336 19.1599 21.2976 19.4559 22.1936 19.4559C22.5776 19.4559 22.8976 19.4079 23.1536 19.3119C23.4096 19.2159 23.6176 19.0799 23.7776 18.9039C23.9376 18.7119 24.0496 18.4879 24.1136 18.2319C24.1776 17.9599 24.2016 17.6559 24.1856 17.3199L27.7376 17.5119C27.7856 18.0399 27.7296 18.5839 27.5696 19.1439C27.4256 19.7039 27.1456 20.2239 26.7296 20.7039C26.3136 21.1839 25.7296 21.5759 24.9776 21.8799C24.2416 22.1839 23.3056 22.3359 22.1696 22.3359Z" fill="#34C286"/>
<path d="M10.44 22V6.16003H14.328V22H10.44ZM0.959961 22V6.16003H4.84796V22H0.959961ZM3.86396 15.664V12.4H12.48V15.664H3.86396Z" fill="#34C286"/>
</svg>
