<svg width="81" height="29" viewBox="0 0 81 29" fill="none" xmlns="http://www.w3.org/2000/svg">
<path d="M10.44 21.9999V6.1599H14.328V21.9999H10.44ZM0.959961 21.9999V6.1599H4.84796V21.9999H0.959961ZM3.86396 15.6639V12.3999H12.48V15.6639H3.86396Z" fill="#34C286"/>
<path d="M22.1692 22.3359C20.9692 22.3359 19.9612 22.1679 19.1452 21.8319C18.3452 21.4799 17.6972 21.0079 17.2012 20.4159C16.7052 19.8079 16.3452 19.1199 16.1212 18.3519C15.9132 17.5839 15.8092 16.7759 15.8092 15.9279C15.8092 15.0159 15.9212 14.1439 16.1452 13.3119C16.3852 12.4799 16.7452 11.7439 17.2252 11.1039C17.7212 10.4479 18.3532 9.9359 19.1212 9.5679C19.9052 9.1839 20.8412 8.9919 21.9292 8.9919C23.0172 8.9919 23.9452 9.1839 24.7132 9.5679C25.4972 9.9359 26.1212 10.4559 26.5852 11.1279C27.0492 11.7999 27.3452 12.5759 27.4732 13.4559C27.6172 14.3359 27.6012 15.2879 27.4252 16.3119L18.2332 16.4559V14.3439L24.4492 14.2239L23.9452 15.4479C24.0412 14.7119 24.0252 14.0959 23.8972 13.5999C23.7852 13.0879 23.5692 12.7039 23.2492 12.4479C22.9292 12.1759 22.4892 12.0399 21.9292 12.0399C21.3372 12.0399 20.8652 12.1919 20.5132 12.4959C20.1612 12.7999 19.9132 13.2319 19.7692 13.7919C19.6252 14.3359 19.5532 14.9839 19.5532 15.7359C19.5532 17.0319 19.7692 17.9759 20.2012 18.5679C20.6332 19.1599 21.2972 19.4559 22.1932 19.4559C22.5772 19.4559 22.8972 19.4079 23.1532 19.3119C23.4092 19.2159 23.6172 19.0799 23.7772 18.9039C23.9372 18.7119 24.0492 18.4879 24.1132 18.2319C24.1772 17.9599 24.2012 17.6559 24.1852 17.3199L27.7372 17.5119C27.7852 18.0399 27.7292 18.5839 27.5692 19.1439C27.4252 19.7039 27.1452 20.2239 26.7292 20.7039C26.3132 21.1839 25.7292 21.5759 24.9772 21.8799C24.2412 22.1839 23.3052 22.3359 22.1692 22.3359Z" fill="#34C286"/>
<path d="M27.5413 21.9999L31.5253 15.6399L27.5893 9.3279H32.1013L33.9493 13.4319H34.0693L35.8693 9.3279H40.3333L36.5173 15.6399L40.3813 21.9999H35.7973L34.0453 17.9679H33.9493L32.0053 21.9999H27.5413Z" fill="#34C286"/>
<path d="M41.3405 21.9999V9.3279H45.2285V21.9999H41.3405ZM43.2605 8.4159C42.5245 8.4159 41.9565 8.2639 41.5565 7.9599C41.1725 7.6399 40.9805 7.1839 40.9805 6.5919C40.9805 5.9839 41.1725 5.5279 41.5565 5.2239C41.9565 4.9039 42.5245 4.7439 43.2605 4.7439C44.0125 4.7439 44.5805 4.9039 44.9645 5.2239C45.3645 5.5439 45.5645 5.9999 45.5645 6.5919C45.5645 7.1679 45.3645 7.6159 44.9645 7.9359C44.5805 8.2559 44.0125 8.4159 43.2605 8.4159Z" fill="#34C286"/>
<path d="M50.9015 22.3359C49.5255 22.3359 48.5015 21.8559 47.8295 20.8959C47.1735 19.9359 46.8455 18.4639 46.8455 16.4799V9.3279H50.7335V16.4319C50.7335 17.3599 50.8615 18.0079 51.1175 18.3759C51.3895 18.7439 51.7735 18.9279 52.2695 18.9279C52.6215 18.9279 52.9415 18.8399 53.2295 18.6639C53.5335 18.4719 53.7975 18.1919 54.0215 17.8239C54.2455 17.4399 54.4135 16.9519 54.5255 16.3599C54.6535 15.7679 54.7175 15.0559 54.7175 14.2239V9.3279H58.6055V21.9999H55.2935V17.0559H55.1255C55.0295 18.2879 54.8135 19.2959 54.4775 20.0799C54.1415 20.8479 53.6775 21.4159 53.0855 21.7839C52.4935 22.1519 51.7655 22.3359 50.9015 22.3359Z" fill="#34C286"/>
<path d="M60.3249 21.9999V9.3279H63.6129V14.4879H63.8049C63.9169 13.1439 64.1329 12.0719 64.4529 11.2719C64.7889 10.4719 65.2289 9.8959 65.7729 9.5439C66.3329 9.1759 66.9969 8.9919 67.7649 8.9919C68.5649 8.9919 69.2129 9.1919 69.7089 9.5919C70.2049 9.9759 70.5729 10.5759 70.8129 11.3919C71.0529 12.1919 71.1649 13.2239 71.1489 14.4879H71.3409C71.4529 13.1599 71.6849 12.0959 72.0369 11.2959C72.3889 10.4959 72.8529 9.9119 73.4289 9.5439C74.0049 9.1759 74.6849 8.9919 75.4689 8.9919C76.1249 8.9919 76.6929 9.1119 77.1729 9.3519C77.6529 9.5919 78.0529 9.9519 78.3729 10.4319C78.7089 10.9119 78.9569 11.5199 79.1169 12.2559C79.2769 12.9759 79.3569 13.8239 79.3569 14.7999V21.9999H75.4689V15.1359C75.4689 14.5279 75.4129 14.0239 75.3009 13.6239C75.2049 13.2079 75.0529 12.9039 74.8449 12.7119C74.6369 12.5039 74.3729 12.3999 74.0529 12.3999C73.6369 12.3999 73.2529 12.5919 72.9009 12.9759C72.5489 13.3439 72.2609 13.9039 72.0369 14.6559C71.8289 15.4079 71.7249 16.3599 71.7249 17.5119V21.9999H67.9329V15.0399C67.9329 14.4319 67.8769 13.9359 67.7649 13.5519C67.6689 13.1679 67.5089 12.8799 67.2849 12.6879C67.0769 12.4959 66.8129 12.3999 66.4929 12.3999C66.0929 12.3999 65.7169 12.5679 65.3649 12.9039C65.0289 13.2239 64.7489 13.7599 64.5249 14.5119C64.3169 15.2639 64.2129 16.2639 64.2129 17.5119V21.9999H60.3249Z" fill="#34C286"/>
</svg>
