<svg width="250" height="58" viewBox="0 0 250 58" fill="none" xmlns="http://www.w3.org/2000/svg">
<path d="M24.5396 12.3261C25.9614 11.5243 27.7022 11.5242 29.1239 12.3261L34.8243 15.5407L40.459 18.6891C41.9261 19.5087 42.8332 21.0531 42.8298 22.7263L42.8162 28.9999L42.8298 35.2734C42.8332 36.9467 41.9261 38.491 40.459 39.3106L34.8243 42.4591L29.1239 45.6737C27.7022 46.4755 25.9614 46.4754 24.5396 45.6737L18.8392 42.4591L13.2038 39.3106C11.7367 38.491 10.8303 36.9467 10.8337 35.2734L10.8466 28.9999L10.8337 22.7263C10.8303 21.0531 11.7367 19.5087 13.2038 18.6891L18.8392 15.5407L24.5396 12.3261Z" fill="white"/>
<path fill-rule="evenodd" clip-rule="evenodd" d="M21.0065 1.55733C24.6092 -0.519077 29.0543 -0.519145 32.657 1.55733L40.2382 5.92693L47.8315 10.2627C51.4458 12.3265 53.6712 16.1577 53.6627 20.302L53.6446 28.9999L53.6627 37.6977C53.6712 41.8421 51.4459 45.6732 47.8315 47.737L40.2382 52.0728L32.657 56.4424L32.3167 56.6311C28.8913 58.4563 24.7715 58.4563 21.3461 56.6311L21.0065 56.4424L13.4246 52.0728L5.83206 47.737C2.33032 45.7377 0.132244 42.0797 0.00607365 38.085L2.38263e-05 37.6977L0.0181733 28.9999L2.38263e-05 20.302C-0.00813661 16.2871 2.08039 12.5661 5.49705 10.4612L5.83206 10.2627L13.4246 5.92693L21.0065 1.55733ZM29.9383 6.22095C28.0169 5.11348 25.6459 5.11346 23.7244 6.22095L16.1432 10.5905L16.1334 10.5958L16.1243 10.6018L8.53103 14.9368C6.60328 16.0376 5.41612 18.0811 5.42067 20.2915L5.43882 28.9886V29.0111L5.42067 37.7082C5.41611 39.9187 6.60329 41.9622 8.53103 43.0629L16.1243 47.3979L16.1334 47.4039L16.1432 47.4092L23.7244 51.7788C25.6459 52.8863 28.0169 52.8863 29.9383 51.7788L37.5195 47.4092L37.5294 47.4039L37.5392 47.3979L45.1317 43.0629C47.0596 41.9622 48.2467 39.9187 48.2421 37.7082L48.2239 29.0111V28.9886L48.2421 20.2915C48.2466 18.081 47.0596 16.0375 45.1317 14.9368L37.5392 10.6018L37.5294 10.5958L37.5195 10.5905L29.9383 6.22095Z" fill="white"/>
<path fill-rule="evenodd" clip-rule="evenodd" d="M126.94 17.9815C128.928 17.9815 130.699 18.3047 132.253 18.9515C133.843 19.5983 135.18 20.5863 136.264 21.9157C137.348 23.2093 138.162 24.8444 138.704 26.8207C139.246 28.7611 139.445 31.0434 139.3 33.6665L119.15 33.8139C119.254 36.6827 119.971 38.8797 121.304 40.404C122.749 42.0207 124.809 42.829 127.483 42.829C128.603 42.829 129.561 42.7031 130.356 42.4516C131.15 42.1641 131.819 41.8051 132.361 41.374C132.903 40.9069 133.337 40.3674 133.663 39.7566C134.024 39.1098 134.313 38.445 134.53 37.7624L139.679 38.9482C139.354 40.2777 138.848 41.4636 138.161 42.5057C137.511 43.5118 136.68 44.392 135.668 45.1466C134.656 45.8652 133.464 46.4221 132.09 46.8174C130.753 47.2126 129.2 47.4107 127.429 47.4107C125.189 47.4107 123.201 47.0874 121.466 46.4407C119.732 45.758 118.268 44.8056 117.075 43.584C115.883 42.3263 114.98 40.8347 114.365 39.1099C113.751 37.3492 113.443 35.3726 113.443 33.1807C113.443 30.9889 113.751 28.9766 114.365 27.144C114.979 25.2757 115.846 23.6586 116.967 22.2932C118.123 20.9278 119.532 19.8678 121.195 19.1132C122.893 18.3586 124.809 17.9815 126.94 17.9815ZM126.995 22.7782C125.405 22.7782 124.014 23.1917 122.821 24.0182C121.665 24.8087 120.761 25.9764 120.111 27.5215C119.777 28.315 119.529 29.189 119.366 30.1436L133.847 30.0173C133.798 28.8389 133.592 27.8095 133.229 26.929C132.65 25.5276 131.819 24.4851 130.735 23.8024C129.651 23.1197 128.404 22.7782 126.995 22.7782Z" fill="white"/>
<path d="M185.623 33.6665C185.623 36.6128 186.075 38.8043 186.978 40.2416C187.882 41.6788 189.309 42.3981 191.26 42.3982C192.344 42.3982 193.302 42.1281 194.133 41.5891C194.964 41.0501 195.687 40.2959 196.302 39.3257C196.952 38.3555 197.458 37.2234 197.82 35.9299C198.217 34.6004 198.488 33.145 198.632 31.564V18.6816H204.486V46.7099H199.5L199.771 37.8165H198.849C198.379 40.0443 197.71 41.8768 196.843 43.314C196.012 44.7154 194.964 45.7579 193.7 46.4407C192.471 47.0875 191.025 47.4107 189.363 47.4107C186.183 47.4106 183.78 46.3325 182.153 44.1765C180.527 41.9846 179.714 38.6969 179.714 34.3132V18.6816H185.623V33.6665Z" fill="white"/>
<path d="M87.2612 26.1199H104.987V11.1357H110.896V46.7099H104.987V31.079H87.2612V46.7099H81.3528V11.1357H87.2612V26.1199Z" fill="white"/>
<path d="M153.101 29.7315H153.914L159.93 18.6816H166.815L157.329 32.6957L166.977 46.7099H160.094L153.859 35.6065H153.101L147.03 46.7099H140.199L149.631 32.6957L140.145 18.6816H146.975L153.101 29.7315Z" fill="white"/>
<path d="M175.769 46.7099H169.914V18.6816H175.769V46.7099Z" fill="white"/>
<path d="M241.002 17.9815C242.483 17.9815 243.784 18.2866 244.905 18.8974C246.025 19.4723 246.965 20.335 247.724 21.4848C248.483 22.6346 249.043 24.0719 249.404 25.7965C249.802 27.4853 250 29.4438 250 31.6716V46.7099H244.092V32.4265C244.092 30.3425 243.911 28.6178 243.549 27.2523C243.188 25.8869 242.628 24.8626 241.869 24.1798C241.11 23.4971 240.153 23.1557 238.996 23.1557C237.695 23.1557 236.539 23.605 235.527 24.5032C234.552 25.3655 233.756 26.5691 233.142 28.1141C232.528 29.6592 232.148 31.4384 232.003 33.4507V46.7099H226.204V32.804C226.204 30.648 226.023 28.8688 225.662 27.4674C225.3 26.0303 224.74 24.9526 223.981 24.234C223.222 23.5154 222.265 23.1557 221.108 23.1557C219.735 23.1557 218.542 23.6231 217.531 24.5573C216.555 25.4557 215.778 26.6955 215.2 28.2765C214.622 29.8575 214.26 31.6361 214.115 33.6123V46.7099H208.261V18.6816H213.248L212.923 27.414H213.898C214.368 25.294 215.001 23.5511 215.796 22.1857C216.627 20.7843 217.621 19.7418 218.777 19.059C219.969 18.3404 221.343 17.9815 222.897 17.9815C224.631 17.9815 226.059 18.3942 227.179 19.2207C228.336 20.0471 229.203 21.1612 229.781 22.5624C230.395 23.9637 230.721 25.5451 230.757 27.3057H231.624C232.094 25.2577 232.744 23.551 233.575 22.1857C234.443 20.7843 235.509 19.7418 236.774 19.059C238.038 18.3404 239.448 17.9815 241.002 17.9815Z" fill="white"/>
<path d="M172.841 7.73989C174.142 7.73989 175.118 8.00999 175.769 8.54899C176.419 9.08799 176.744 9.86047 176.744 10.8665C176.744 11.9085 176.419 12.6992 175.769 13.2382C175.118 13.7412 174.142 13.9924 172.841 13.9924C171.577 13.9924 170.619 13.7412 169.968 13.2382C169.318 12.6992 168.993 11.9085 168.993 10.8665C168.993 9.86049 169.318 9.08799 169.968 8.54899C170.619 8.01001 171.577 7.73991 172.841 7.73989Z" fill="white"/>
</svg>
