<svg width="40" height="44" viewBox="0 0 40 44" fill="none" xmlns="http://www.w3.org/2000/svg">
<path d="M15.5455 1.21367C18.301 -0.404598 21.6991 -0.404516 24.4545 1.21367L29.9295 4.42852H29.9289L29.9888 4.4631L35.5332 7.6888H35.5325C38.2982 9.29782 40.0066 12.289 40 15.5303L39.9867 22.0013L40 28.4697C40.0066 31.711 38.2982 34.7015 35.5325 36.3105L35.5332 36.3112L29.9888 39.5369L29.9342 39.5674L24.4545 42.7863C21.6991 44.4045 18.301 44.4046 15.5455 42.7863L10.0112 39.5369L4.46749 36.3112C1.70199 34.7022 -0.00653204 31.7109 1.87705e-05 28.4697L0.0133465 22.0013L1.87705e-05 15.5303C-0.00652423 12.2891 1.70199 9.2978 4.46749 7.6888L10.0112 4.4631L10.0711 4.42852H10.0698L15.5455 1.21367ZM22.0668 5.42328C20.7889 4.67285 19.211 4.67285 17.9332 5.42328L12.3982 8.67407L12.3868 8.68085L12.3755 8.68695L12.3715 8.68967L12.3329 8.71069L6.8385 11.9086H6.83783C5.55697 12.6539 4.77372 14.0337 4.77669 15.5201L4.79002 21.9912V22.0088L4.77669 28.4799C4.77371 29.9663 5.55697 31.3461 6.83783 32.0914H6.8385L12.3715 35.3103L12.3755 35.3123L12.3982 35.3259L17.9332 38.5767C19.211 39.3272 20.7889 39.3272 22.0668 38.5767L27.5359 35.3646L27.6072 35.3178L27.6798 35.2805L33.1622 32.0914L33.3961 31.9443C34.5377 31.1732 35.2261 29.8736 35.2233 28.4799L35.21 22.0088V21.9912L35.2233 15.5201C35.2263 14.0336 34.4431 12.6539 33.1622 11.9086L27.6798 8.71882L27.6072 8.68221L27.5359 8.63474L22.0668 5.42328Z" fill="white" fill-opacity="0.5"/>
<path d="M18.3265 9.59522C19.3646 8.99865 20.6358 8.99865 21.6739 9.59522L25.8358 11.9869L29.9503 14.3291C31.0215 14.9389 31.6836 16.0879 31.681 17.3329L31.6714 22L31.681 26.6671C31.6836 27.9121 31.0215 29.0611 29.9503 29.6709L25.8358 32.0131L21.6739 34.4048C20.6358 35.0014 19.3646 35.0014 18.3265 34.4048L14.1646 32.0131L10.0501 29.6709C8.97889 29.0611 8.3168 27.9121 8.3194 26.6671L8.32907 22L8.3194 17.3329C8.3168 16.0879 8.97889 14.9389 10.0501 14.3291L14.1646 11.9869L18.3265 9.59522Z" fill="white"/>
</svg>
